<svg width="130" height="114" viewBox="0 0 130 114" fill="none" xmlns="http://www.w3.org/2000/svg">
<path d="M58.2615 30.4399C58.1741 29.8546 58.0119 29.2896 57.8085 28.7343C57.4924 27.8708 57.0147 27.1063 56.449 26.3861C55.839 25.6086 55.0615 25.0358 54.2416 24.5092C54.108 24.4955 53.9972 24.4297 53.8845 24.3619C51.9293 23.1881 49.9813 22.002 48.0294 20.823C45.3619 19.212 42.6983 17.5931 40.0269 15.9879C38.9222 15.3238 37.7133 14.9653 36.4307 14.8226C34.9467 14.6577 33.5318 14.8786 32.1736 15.486C31.6177 15.7344 31.1041 16.0635 30.5795 16.3698C27.8781 17.9457 25.1728 19.5131 22.4701 21.087C20.6876 22.1252 18.8817 23.1262 17.1247 24.2055C14.7915 25.638 13.361 27.6948 13.0377 30.4607C13.0051 30.7423 12.9875 31.0219 12.9875 31.304C12.9882 37.006 12.9465 42.7079 13.0051 48.4092C13.0351 51.325 14.3392 53.6445 16.821 55.2067C19.4676 56.8725 22.1677 58.453 24.8424 60.073C26.9507 61.351 29.0597 62.627 31.17 63.901C32.7491 64.854 34.4807 65.256 36.314 65.154C37.7165 65.076 38.9919 64.595 40.1957 63.86C43.4765 61.856 46.784 59.897 50.0797 57.918C50.2368 57.824 50.388 57.715 50.5789 57.697C51.5103 57.133 52.4403 56.5681 53.3722 56.0064C54.9742 55.0412 56.5709 54.0681 58.182 53.1186C59.0377 52.6141 59.9201 52.1547 60.7902 51.6743C62.6339 50.6564 64.4796 49.6416 66.3205 48.6178C68.9105 47.1774 71.5165 45.7665 74.0555 44.2349C76.5725 42.7157 79.1305 41.2611 81.6645 39.768C83.9995 38.3922 86.3215 36.9943 88.6595 35.625C89.6105 35.0678 90.5385 34.4603 91.6165 34.1475C92.1575 33.9905 92.7045 33.8731 93.2555 33.7656C93.3615 33.7115 93.4865 33.7786 93.5915 33.7148C93.6965 33.7096 93.8015 33.7045 93.9065 33.6992C94.2955 33.6667 94.6855 33.6639 95.0745 33.7004C96.7755 33.8112 98.2315 34.5607 99.6585 35.4151C101.379 36.4455 103.122 37.4361 104.855 38.4443C107.622 40.0541 110.387 41.6678 113.157 43.2743C115.552 44.6644 117.962 46.0304 120.348 47.4362C122.391 48.6393 124.515 49.712 126.464 51.0617C128.376 52.3854 129.517 54.2487 129.88 56.5649C129.898 56.6815 129.929 56.7969 129.954 56.9129C130.002 57.023 129.944 57.148 130 57.257C130 57.517 130 57.778 130 58.038C130 68.625 129.999 79.212 130 89.8C130 92.386 129.057 94.5581 127.137 96.2931C126.411 96.9501 125.536 97.383 124.699 97.874C123.141 98.787 121.584 99.701 120.023 100.608C118.769 101.336 117.506 102.051 116.251 102.78C114.392 103.86 112.541 104.952 110.681 106.03C108.589 107.243 106.488 108.442 104.396 109.654C102.556 110.722 100.723 111.804 98.8825 112.874C98.3995 113.155 97.8945 113.393 97.3705 113.588C96.9845 113.731 96.5915 113.813 96.1705 113.806C94.9865 113.787 93.8005 113.751 92.6205 113.815C91.6375 113.868 90.8345 113.47 90.0345 113.018C89.0005 112.435 87.9785 111.83 86.9515 111.233C85.9505 110.651 84.9505 110.066 83.9505 109.483C82.9515 108.9 81.9525 108.316 80.9515 107.736C79.9415 107.15 78.9265 106.57 77.9145 105.986C76.8865 105.391 75.8595 104.796 74.8335 104.199C73.8325 103.617 72.8345 103.03 71.8325 102.449C70.6485 101.762 69.4605 101.081 68.2765 100.393C67.0285 99.669 65.7825 98.942 64.5369 98.214C63.7399 97.748 62.9148 97.3281 62.1699 96.7781C60.8188 95.7791 59.8321 94.505 59.2299 92.929C58.9973 92.319 58.85 91.697 58.7698 91.054C58.7131 90.925 58.7874 90.78 58.7196 90.652C58.7183 86.841 58.7209 83.029 58.7099 79.218C58.7092 78.909 58.8076 78.749 59.0768 78.594C61.2255 77.361 63.3612 76.104 65.5045 74.861C67.2445 73.853 68.9895 72.851 70.7325 71.848C71.0055 71.69 71.2805 71.536 71.6275 71.338C71.6275 72.671 71.6275 73.945 71.6275 75.219C71.7445 75.361 71.7015 75.53 71.7025 75.688C71.7055 77.926 71.6815 80.163 71.7115 82.4C71.7375 84.3 72.4055 85.979 73.5885 87.466C74.4285 88.522 75.5535 89.19 76.6935 89.848C78.7525 91.037 80.8055 92.2381 82.8625 93.4311C85.3505 94.8751 87.8215 96.35 90.3325 97.755C91.3615 98.331 92.5025 98.6131 93.6865 98.7371C94.9475 98.8681 96.1505 98.676 97.3325 98.262C97.7455 98.118 98.1335 97.9221 98.5065 97.7001C101.673 95.8221 104.833 93.934 107.995 92.049C109.646 91.065 111.331 90.136 112.933 89.076C115.043 87.68 116.263 85.696 116.604 83.188C116.662 82.761 116.697 82.327 116.696 81.89C116.691 76.384 116.706 70.878 116.686 65.372C116.679 63.054 115.846 61.047 114.213 59.39C113.527 58.695 112.683 58.216 111.844 57.733C109.361 56.3016 106.889 54.8522 104.41 53.4131C102.335 52.2088 100.293 50.9386 98.1765 49.813C95.5575 48.4216 92.8455 48.2574 90.1485 49.6397C88.9995 50.2288 87.9075 50.9268 86.7915 51.5759C83.3845 53.5578 79.9765 55.5391 76.5715 57.524C73.5415 59.29 70.5045 61.044 67.4765 62.814C67.3425 62.892 67.1965 62.919 67.0565 62.969C66.1595 63.48 65.2615 63.987 64.3668 64.502C63.137 65.21 61.9092 65.922 60.6813 66.635C58.646 67.816 56.6106 68.999 54.576 70.182C52.6078 71.326 50.6402 72.472 48.672 73.617C46.7983 74.707 44.9239 75.797 43.0502 76.888C41.9091 77.553 40.7861 78.252 39.6222 78.875C38.6909 79.373 37.6761 79.667 36.6203 79.793C36.5108 79.842 36.3864 79.783 36.2782 79.841C36.0664 79.846 35.8545 79.853 35.6427 79.859C35.5359 79.888 35.429 79.89 35.3227 79.858C35.1331 79.852 34.9428 79.846 34.7531 79.841C34.645 79.782 34.5198 79.843 34.4103 79.792C34.1307 79.743 33.8505 79.695 33.5709 79.646C33.1479 79.65 32.7732 79.471 32.3959 79.317C31.3355 78.885 30.3905 78.238 29.4051 77.669C26.0963 75.761 22.7966 73.837 19.4924 71.92C17.1175 70.542 14.7433 69.163 12.3697 67.783C9.6305 66.19 6.8724 64.629 4.1501 63.008C2.0724 61.77 0.692101 59.978 0.134201 57.593C0.0547011 57.253 0.0339012 56.9083 0.0339012 56.561C0.0176012 56.4163 0.0684 56.2664 0 56.125C0 45.1773 0 34.229 0 23.2813C0.0684 23.1777 0.0182012 23.0623 0.0339012 22.9535C0.0573012 21.624 0.567 20.4613 1.2813 19.3762C1.9721 18.3276 2.9301 17.5898 4.0191 16.9765C6.091 15.81 8.1289 14.5828 10.1818 13.3836C13.2756 11.5757 16.3674 9.76465 19.4598 7.95475C23.535 5.56945 27.6135 3.18615 31.6868 0.795547C32.2603 0.458647 32.8866 0.237047 33.522 0.0441471C33.6589 0.00244712 33.8003 0.00114785 33.9417 0.00114785C35.3534 0.00114785 36.7657 -0.00215515 38.1773 0.00244485C38.8812 0.00504485 39.4775 0.343944 40.0556 0.680244C42.5621 2.13684 45.0601 3.60905 47.5582 5.08065C49.0174 5.94025 50.4799 6.79604 51.9417 7.65174C52.046 7.71234 52.1503 7.76964 52.2004 7.88824C53.3012 8.54454 54.3987 9.20604 55.5027 9.85654C58.0835 11.3789 60.665 12.8994 63.2504 14.414C64.6823 15.2527 66.1445 16.042 67.5305 16.9563C69.2835 18.1138 70.4265 19.7366 70.9935 21.7582C71.1035 22.1506 71.1555 22.5592 71.2345 22.96C71.2905 23.0917 71.2205 23.2383 71.2835 23.3687C71.2825 23.5961 71.2805 23.8236 71.2805 24.051C71.2805 27.7189 71.2785 31.3868 71.2845 35.0554C71.2855 35.2972 71.2235 35.4256 70.9965 35.5533C69.8255 36.2128 68.6735 36.9069 67.5105 37.5802C66.3465 38.254 65.1755 38.9136 64.0123 39.5868C62.1562 40.6615 60.304 41.7421 58.4498 42.8207C58.399 42.8344 58.3644 42.8148 58.3599 42.7633C58.3508 42.6662 58.356 42.5685 58.356 42.4707C58.356 38.7728 58.356 35.0749 58.3547 31.377C58.3547 31.2597 58.382 31.1385 58.3266 31.0245C58.3221 30.941 58.3169 30.8576 58.3123 30.7748C58.2582 30.6686 58.3273 30.5435 58.2615 30.4399Z" fill="#8046E3"/>
</svg>
